<?xml version='1.0' encoding='utf-8'?>
<!-- Generator: imaengine 6.0   -->
<svg viewBox="0,0,1440,1755" xmlns:xlink="http://www.w3.org/1999/xlink" xmlns="http://www.w3.org/2000/svg" width="1440" height="1755" version="1.1">
<defs/>
<g id="layer0">
<path d="M109,1755C119.4,1756.5 113.3,1742.3 115,1733C109.1,1731.7 109.1,1746 109,1755ZM120,1755C148.6,1764.5 143.4,1738.9 149,1728C153.3,1713.9 158.8,1699 164,1688C170,1675.3 175,1659.9 180,1648C181.1,1631.3 197.3,1629.6 201,1616C202.6,1605.8 228.4,1590.9 227,1599C211.9,1602.1 212.1,1622.6 208,1635C197.4,1664.2 212.9,1621.2 226,1639C237.6,1646 247.2,1654.3 257,1662C267.3,1670.6 278,1680.2 289,1685C301.5,1691.6 316.1,1697.5 334,1695C356.7,1691.4 372.4,1694.1 347,1702C331.3,1705.5 311.9,1702.7 298,1699C284.3,1695.4 273.4,1685.9 263,1679C241.5,1665.1 269.6,1688.6 270,1693C286.6,1697.2 292.2,1714.1 272,1717C260.4,1720.3 234.7,1730.4 266,1731C281.7,1739.4 297.9,1727.6 309,1725C308.8,1733.8 287.5,1738.9 275,1740C257.1,1740.6 241.3,1736.1 234,1726C225.8,1716.9 219.9,1704.8 214,1692C210.2,1684.8 204.7,1650.6 200,1663C198.5,1679.3 193.1,1694.2 198,1710C200.4,1725.9 211.7,1735 221,1742C234.2,1747.1 244.1,1755.2 262,1755C279.6,1754 292,1746.1 303,1740C317.1,1739 324,1718.1 331,1719C324,1729.5 316.4,1742.4 304,1747C280,1758.8 320.9,1754.1 333,1755C338.3,1757.7 348.8,1747.1 357,1737C367.5,1729.1 372.7,1716.3 379,1704C384,1691.3 397,1683.9 403,1674C414.9,1667.2 421.3,1655.6 429,1645C437.1,1635.4 436.8,1611 433,1602C440.6,1574.2 446,1595.1 442,1614C451.9,1618 440.2,1581.1 448,1576C454.9,1564.4 463.4,1555 468,1541C477.4,1532.7 481.6,1516.5 491,1509C501.7,1502 505.6,1487.8 518,1482C528.5,1474.5 539,1464.6 545,1454C537.5,1453.6 551.4,1430.3 558,1425C564.3,1413.9 571.6,1400.8 579,1392C581.4,1382.3 622.1,1396.3 608,1396C584.6,1394.3 572.4,1408.5 603,1402C619.2,1399.1 634,1406.7 651,1405C668.5,1392.6 677,1413.8 682,1422C686.9,1435.8 694.8,1445.9 702,1456C709.4,1465 714.4,1487.7 729,1479C740.3,1473.1 747.7,1462.5 757,1454C770.1,1448.6 776.1,1434.3 784,1425C791.3,1414.6 799.5,1402.5 802,1388C807.1,1375.1 808.7,1356.3 811,1342C814,1327 811.9,1306.9 812,1289C820,1260.6 789.9,1279.6 779,1278C766.2,1283 748.2,1283.1 732,1285C708.4,1283.7 713,1275.6 695,1280C664.6,1280.5 702,1276.4 704,1266C710.6,1254.2 706.2,1229.4 721,1227C737.3,1230.1 746.5,1241.3 758,1245C769,1253.7 784.1,1259 798,1261C814.1,1263.8 832.4,1261 848,1260C864.7,1262.2 870.9,1276.3 879,1284C883.6,1298.5 906.1,1295.3 920,1292C937,1290.3 940.3,1273.2 951,1267C960.8,1260.7 981,1258.5 996,1261C1016.6,1259.4 1024.3,1272.1 1033,1279C1035,1296.3 1045.6,1306.1 1053,1315C1059.2,1327.4 1063.3,1343.6 1062,1361C1059.3,1381.8 1071.7,1401.4 1068,1368C1069.8,1351.1 1071,1331.9 1071,1315C1067.6,1299.2 1096.4,1282.3 1081,1303C1075.8,1317.9 1087.3,1334.8 1078,1348C1079.6,1365.8 1076.3,1387.1 1082,1398C1086.5,1413.2 1095.5,1424.6 1105,1431C1114.6,1440.4 1132.1,1443.3 1139,1452C1153.8,1456.5 1173.7,1456.9 1190,1456C1210.8,1459 1216.5,1446.6 1227,1440C1247.1,1432.8 1233.5,1408.4 1218,1424C1201,1424.8 1193.3,1411.2 1202,1395C1204.9,1381 1212,1363.4 1209,1350C1204.3,1337.6 1178.1,1345.8 1170,1335C1148.5,1339.1 1134.9,1332.3 1127,1323C1109.5,1305.4 1105,1335.1 1116,1343C1122.1,1355.3 1104.8,1373.1 1094,1366C1088.8,1353.3 1095.1,1334.2 1095,1319C1101.4,1298.9 1094.2,1284 1082,1279C1058.8,1270.7 1094.5,1253.5 1068,1260C1052.4,1255.1 1080.2,1237.7 1087,1252C1099.1,1258.9 1108.8,1267.2 1119,1274C1130.1,1282.1 1141.5,1291.1 1152,1297C1161.3,1306.3 1174,1314 1182,1321C1193,1329.9 1206.4,1336.8 1215,1344C1226,1351.8 1235.9,1360 1245,1368C1255.8,1376.3 1266,1386.5 1280,1388C1293.3,1383.3 1298.1,1370.1 1308,1362C1329.8,1365.5 1329.4,1344.8 1332,1330C1335.6,1306.5 1307.7,1315.8 1305,1326C1284.8,1328.8 1291.2,1302 1276,1299C1265.4,1292.9 1253.1,1284.8 1244,1276C1232.8,1270.2 1221.7,1261 1212,1253C1200.5,1243.8 1191.4,1241.1 1199,1220C1201.6,1203.9 1202,1183.9 1203,1168C1204.5,1151.8 1206.5,1135.8 1206,1117L1206,1062C1202.6,1047.4 1207.7,1024.3 1199,1014C1194.8,1024.5 1195.3,1065.1 1191,1028C1191.3,1010.9 1192.8,989 1190,974C1191.3,955.5 1188,938.5 1189,920C1189.7,883.4 1184.4,916.1 1186,933C1184.4,948.2 1187,974.2 1182,982C1179.1,968 1178.7,950.4 1179,932C1180.7,915.6 1174.8,889.3 1184,882C1194.4,874.2 1207.1,869 1203,847L1203,792C1203.8,779.1 1204,742.5 1199,750C1197.2,766.8 1199.6,789.6 1197,803C1195.8,820.5 1195.8,835.5 1197,852C1185.5,856.9 1193.8,824.4 1189,817C1195.6,808.6 1189.4,785.2 1191,768C1191.8,750.6 1192.8,729.2 1188,717C1183,737.7 1180.4,716.5 1176,700C1167.2,691.6 1166.3,672.1 1157,664C1126.8,661.6 1145.3,656.1 1163,654C1170.1,639 1134.3,653.5 1135,660C1144.4,669.8 1154.1,678 1158,691C1166.7,701.7 1170.4,718.4 1172,732C1175.4,748 1176.7,764.7 1176,783C1179.1,798.6 1176.9,821.2 1177,837C1175.8,853.1 1175.7,871 1171,884C1165.7,897.9 1167.8,855 1154,858C1143.3,851.9 1124.2,850.6 1108,849C1089.3,850.6 1086.2,833.3 1083,819C1082,802.8 1079.8,787 1078,770C1075.3,748.5 1112.5,765.3 1119,756C1133.4,749.3 1132.4,732 1132,716C1128,704.8 1138.1,678.6 1126,672C1099,677.2 1129.4,683.8 1123,703C1113.1,711 1120.6,738.8 1104,739C1093.9,747 1078.7,752.2 1067,757C1053.4,761.8 1036.1,764.9 1020,766C1002.4,764.1 988,767.5 970,765C952.5,765 939.3,757.7 929,750C918.8,743.6 908.5,735.9 900,726C889.9,718.3 881.6,706.2 873,698C865.9,687.3 856.8,678.4 849,667C839.7,659.1 832.4,646.1 824,637C817,626.6 806.3,616.9 801,605C791.2,597.1 785.7,582.2 775,576C761.5,563.5 777.3,587.5 776,600C786.5,631.3 783.4,602.8 790,613C796.9,630.6 802.8,641.6 801,621C811.3,629 815,645.6 815,662C818,677.3 822,691.3 828,703C833.9,715.7 844.9,725 852,734C862.8,742 875.6,749.6 888,753C901.9,758.2 918.3,762.2 933,763C956.5,770.4 950.8,776.2 925,771C915.1,771.9 881.1,757.4 893,774C900.2,785.4 905.3,798.3 918,803C933.9,811.5 949.4,799 964,799C978.7,796.2 994.4,793.8 1002,784C1024.4,769.6 1005.1,794.6 1014,804C1019.2,820.4 1045.2,803.2 1045,801C1051.5,793 1056.8,764.6 1032,776C1026.1,768 1062.2,777.6 1059,767C1073.9,755.3 1082,750.3 1069,771C1067.7,787.4 1063.7,801.4 1059,815C1054.9,828.9 1049.2,843.6 1045,856C1039.3,868.3 1034.1,881.1 1026,891C1021.2,904.4 1008.2,911.8 1002,923C994.2,942.3 991.5,931.4 979,945C957.5,959 957.5,942.9 977,938C1001.3,930.9 977.6,926.9 990,915C971.4,915.1 960.7,924.8 950,930C941.2,938.8 932.7,951.4 923,955C929.4,956.2 937.6,979.7 948,974C960.4,965.4 974.3,960.8 963,955C977.1,955.8 996.4,939.1 1000,950C997.9,951.8 970.8,955.5 970,968C966.6,976.2 940.7,991.7 959,993C966.3,1012.6 939,991.1 938,983C930.5,973.4 917.3,966.1 907,959C895.6,953.2 891.5,939.4 875,937C861.7,941.7 856,956.4 843,960C844,959 867.4,944.7 849,936C835.5,940.3 843.2,935.4 821,939C808.7,945.2 797.3,954.2 783,956C771.7,963.6 756.5,968.7 744,973C732,978.8 717.9,982.8 705,988C693.8,994.9 690.6,1012.1 669,1008C651.5,1008.4 637.7,1004.2 622,1001C604.3,1001.3 589.2,996 578,990C588.6,982.9 562.7,975 556,968C546.4,960.2 537.8,948.4 534,934C531.5,918.1 534.9,897.8 541,888C545.2,874.1 548.2,856.7 551,843C554.5,828.3 555.7,811.5 570,808C584.7,804.3 598.8,798 609,792C621.8,786.1 633.7,777.6 642,770C654.2,763.2 663.5,752.1 671,743C680.9,734.9 687.8,723.8 695,713C702.8,702.5 710.5,689.8 714,677C718.4,663.1 721.9,644.5 718,628C718.6,610.5 721,587.8 711,581C705,569.2 693.6,562.5 682,555C671.4,548.5 663.9,535.6 650,532C644.2,527.5 605.1,520.9 632,529C646.9,533.7 659.6,541.4 667,550C674.5,561.1 691.6,562 698,573C707.2,582.6 716.3,593.9 713,613C713.2,631.1 705.8,644.2 699,654C692.9,666.2 683.6,677.3 676,686C668.6,696.9 660.5,706.8 649,713C640.4,722.9 627.7,730.7 617,736C609.1,745.6 586.7,747 576,739C562.3,734.7 550,726.6 537,722C523.7,717.7 503,720.7 488,722C470.7,722.2 446.3,726.2 444,711C442.7,727 461.3,731.8 478,730C496.2,729.5 518.6,730.5 529,731C541.9,732.9 548.4,747.5 554,758C560.9,767.3 563.8,793.8 556,803C552.4,817.3 545,827.9 538,839C531.3,850.4 524.2,863.7 519,875C511.9,886 507.1,899.2 498,909C492.9,918.4 487,946.2 477,924C481.5,914.8 450.4,922.5 441,915C424.6,913.5 408.4,909.4 393,907C377.3,904.2 359.3,908.4 347,912C335.3,919.3 317.4,921.8 317,938C324.4,944.3 321.1,970.1 326,981C329.4,996.4 340.3,1006 344,1018C349.8,1026.7 368.2,1038.2 360,1049C361,1055.2 346.4,1039.9 336,1035C336,1021.6 330.5,1005 321,997C316.5,1001.4 331.3,1021.7 330,1033C334.8,1047.3 346.7,1053.5 351,1067C360.8,1074.2 357.2,1102.5 358,1112C356,1127.5 360.2,1149.6 348,1155C342.6,1168.3 345,1191.1 342,1204C335.5,1227.9 340.2,1180 334,1176C332.7,1193.1 331.2,1212 331,1229L331,1284C333.3,1304.3 331,1322.4 321,1329C313.9,1339.9 306.8,1350.8 298,1360C293.7,1374 278.5,1379.2 279,1396C279.6,1414.9 266.5,1419.7 266,1437C262.9,1478.6 259.9,1431.6 255,1443C253.3,1459.3 256.2,1480.2 250,1492C244.1,1504.4 238.1,1518.8 234,1531C229.6,1544 217,1556.8 221,1568C205.5,1594 225.3,1547.6 208,1575C200.3,1582.3 202.8,1610.2 191,1607C185.5,1619.4 178.6,1632.8 172,1643C167.7,1656.6 158.6,1665.4 151,1676C146.7,1689.8 140.8,1704.3 131,1711C124,1722.2 120.8,1736.9 120,1755ZM196,1755C214.5,1756.6 234.9,1754.7 210,1743C196.4,1727.9 196.3,1731.9 196,1755ZM825,1755C834.1,1741 834,1708.1 838,1749C851.3,1763.7 866.5,1733.5 857,1722C849.7,1709.8 839.2,1691.8 844,1684C840.2,1667.9 830.8,1654.5 825,1640C817.2,1627.3 809.2,1613.9 801,1600C795.1,1585.2 783.8,1575 776,1560C771.1,1544.9 757.7,1536.9 750,1522C742.1,1513.6 744.1,1476.5 726,1494C710.4,1491 735.7,1517.8 736,1527C745.7,1539.9 754,1553 761,1567C771.2,1578.7 775.8,1595.5 785,1607C791,1624.8 800.8,1620.4 804,1643C813,1655.4 824.2,1668.4 825,1684C815.1,1685.7 831.6,1686.6 830,1688C847,1695.5 802.8,1693.8 812,1679C809.4,1683.1 813.6,1728.9 819,1716C826.9,1694.1 825.7,1744.7 825,1755ZM861,1755C877.8,1759.8 874.7,1747.4 867,1744C865.8,1729.4 861.2,1751.2 861,1755ZM880,1755L932,1755C948.4,1754.1 960.5,1749.1 977,1748C994.5,1748.7 1008.2,1745.4 1020,1740C1034.9,1737.7 1040.9,1726.6 1051,1720C1052.2,1733.3 1041.4,1742.9 1029,1747C1006.9,1752.7 1011.4,1757.3 1037,1755C1053.6,1736.2 1042.6,1744.1 1058,1755C1066,1742.8 1051,1721.1 1067,1742C1068.5,1728.2 1061.7,1714.6 1050,1710C1039.8,1703.4 1036.4,1689.7 1033,1675C1031.6,1660.3 1034.2,1640.5 1018,1639C1001.4,1635 989.2,1643.1 977,1647C966.9,1653.9 956.5,1660.7 946,1667C938.5,1676.9 927.7,1683.3 921,1694C914.2,1704 908.1,1715.1 902,1726C897.7,1738.4 887.2,1746.7 880,1755ZM1067,1755C1076.1,1758.4 1073.7,1747.3 1072,1746C1068.9,1742.4 1065.7,1751.8 1067,1755ZM874,1740C873.1,1728.5 863.3,1717.2 857,1706C860.9,1716.3 866.5,1731.8 874,1740ZM802,1699C803.5,1694.1 805.4,1675.8 801,1674C798.6,1682.2 799.9,1694.4 802,1699ZM1045,1679C1051.6,1671.9 1045.7,1655.8 1042,1652C1039.9,1656.3 1045.6,1672.2 1045,1679ZM387,1657C374.4,1652.5 356,1651.3 345,1645C332.6,1641.5 321.6,1633 312,1626C301,1620.5 290.8,1611.1 279,1607C269.5,1599.5 255.8,1596.1 246,1587C230.3,1584.8 235.8,1561.9 243,1554C245.8,1541.2 243.2,1521.8 250,1512C258.6,1502.4 261.2,1485.5 267,1476C267.8,1459.2 275.3,1449.6 279,1436C286.6,1426.3 286,1406.2 294,1398C300,1387 306.5,1373.9 313,1365C318.9,1353.2 324.3,1339 333,1332C348.5,1330.4 347.5,1312.2 354,1302C362.5,1292.7 363.2,1273.8 367,1262C369.6,1247.1 377.3,1235.2 381,1224C386.4,1211.2 392.4,1197.5 397,1186C402.3,1174.6 407.4,1162.6 412,1150C420.5,1141.1 439.4,1138.9 428,1118C417.6,1091.6 427,1139 425,1135C404.4,1126.7 404.8,1149.8 399,1159C394.5,1171.5 390.7,1184.8 384,1195C380,1208.6 374.3,1222.5 369,1233C363.8,1245.2 359.8,1260.8 354,1271C355.1,1275.1 354.4,1248.7 351,1238C348.2,1224.4 346.2,1204.6 353,1194C357.4,1180.9 364.2,1168 369,1157C372.9,1143.6 379.6,1130.8 384,1119C391.9,1109.9 392.6,1091.1 403,1086C419.6,1087.7 435.2,1089.2 433,1108C437,1119.8 443.8,1140.3 437,1149C432.2,1161.6 427.3,1173.9 421,1185C417.1,1198.2 410,1210.7 406,1222C400.8,1234.3 394.7,1245.5 389,1257C381.3,1262.5 363,1285.5 384,1271C394.1,1263.8 399.4,1249.6 406,1240C414.2,1231.2 418.4,1215.9 424,1206C430.1,1194.6 435.3,1182.7 442,1172C458.1,1164.3 469.8,1179.5 478,1184C489.2,1190.6 500.9,1198.5 510,1204C528.5,1207.9 522.2,1227.2 514,1235C509.1,1245.1 503.5,1263 497,1265C502.3,1252.4 508.5,1239.1 514,1229C525,1203 504.7,1229.9 504,1238C497.6,1249.1 492.4,1263.5 486,1272C481.4,1285.4 474.6,1295.7 469,1307C467.4,1325.1 447.8,1326.8 443,1311C436.3,1307.8 414.3,1291.2 414,1301C424.4,1308.2 434.9,1317.2 446,1321C454.2,1332.4 473.3,1329.7 479,1319C488.3,1310.4 494.1,1296.7 500,1287C502.1,1262.3 521.6,1286.2 523,1293C528.1,1306 530.1,1323.5 529,1339L529,1391C530.1,1408.2 528.3,1429.5 532,1441C533.7,1468.2 518.2,1426.3 516,1455C498.7,1474.6 508.7,1455.7 515,1445C527.4,1420.9 508.5,1440 501,1446C492.2,1454.6 486.3,1468.3 479,1477C474.8,1489.9 458.5,1493.2 453,1504C447.4,1515.2 436.2,1523.6 429,1532C413.7,1544.1 429.3,1551.3 416,1560C409.6,1571.3 398.9,1580.2 393,1590C384.5,1598.7 379.9,1611.2 367,1616C356.5,1624.6 345.6,1636.3 363,1641C371.1,1651.7 400.7,1642.3 387,1657ZM1038,1650C1036.5,1630.3 1026.4,1609.3 1020,1590C1009.7,1574.7 1007.9,1547.8 997,1532C991.5,1511.8 982.1,1492.6 975,1473C973,1469.4 972.7,1462.9 970,1458C971.9,1451.7 968.9,1449.5 969,1443C967.4,1417.4 964.3,1435 960,1432C958.8,1407 952.3,1384.9 941,1370C927.7,1358.9 931.1,1325 932,1302C919,1305 893.9,1311.1 879,1294C864.6,1283 859.2,1261.8 826,1267C776.1,1267.2 840.6,1271.9 844,1281C867.8,1285.7 883,1299.2 894,1312C911.4,1323.2 915.5,1347.6 923,1365C930.7,1384.5 940.9,1400.8 947,1420C953.3,1442 965.6,1458.3 968,1481C976.2,1499.7 983,1519.4 991,1537C998.5,1557.5 1005.1,1579.5 1013,1596C1017.5,1619.1 1028.6,1634.5 1038,1650ZM264,1557C277.7,1557.9 264.1,1552.2 259,1551C248,1549.8 262.3,1554.9 264,1557ZM257,1540C267,1528.7 278.9,1509.9 273,1490C271.4,1509.2 255.9,1524.3 257,1540ZM892,1504C892.7,1492.9 874.1,1485.9 866,1476C867.8,1485.7 885.1,1494.1 892,1504ZM902,1497C900.1,1487.8 889.1,1478.4 879,1472C883.3,1480.9 896.9,1487.6 902,1497ZM275,1487C296.3,1485.2 298.5,1462.1 307,1449C312.6,1436.5 331.4,1414.4 324,1405C292.3,1393.8 306.5,1430.2 293,1440C278.7,1453.1 292.5,1477.8 275,1487ZM1234,1482C1251,1484.7 1267.8,1468.9 1242,1477C1220.6,1474.4 1208.4,1479.7 1234,1482ZM1207,1469C1228.8,1468.8 1254.9,1472.6 1266,1461C1281.2,1454.8 1294.3,1444.3 1311,1441C1326.3,1433.9 1334.6,1419.9 1333,1396C1325.5,1405.1 1311.2,1422.6 1298,1416C1286.8,1427.4 1277,1439.8 1265,1450C1248.2,1451.1 1221.3,1436.8 1242,1454C1251.2,1467.1 1217.2,1454.7 1202,1463C1160.2,1461.5 1182.9,1470.7 1207,1469ZM299,1450C299.9,1445 306.2,1421.4 313,1413C314.8,1419.7 303.8,1438.6 299,1450ZM681,1445C679.9,1434.4 671.3,1414.5 654,1414C650.9,1430.1 676.9,1432.5 681,1445ZM1253,1441C1261.7,1442.7 1262.6,1437.2 1257,1434C1249.3,1433.5 1248.4,1438.9 1253,1441ZM1289,1441C1275.1,1443.3 1299.3,1431.5 1303,1429C1319,1428.5 1296.4,1441.8 1289,1441ZM1306,1414C1322.3,1411.6 1291.1,1402.3 1288,1397C1274.6,1397.2 1302.8,1411.1 1306,1414ZM1226,1410C1249.6,1403 1239.8,1410 1239,1386C1232.8,1353.9 1227.8,1401.9 1226,1410ZM1261,1405C1280.4,1403.7 1263.2,1397.6 1253,1398C1240.1,1388.6 1254,1408.4 1261,1405ZM1307,1402C1323.2,1402.9 1323.5,1387.8 1330,1379C1336.8,1367.4 1331.1,1343.5 1323,1364C1316.3,1372.9 1311.7,1383.7 1301,1388C1282.5,1398.7 1294.2,1394.4 1307,1402ZM315,1397C325.5,1392.6 335.8,1387.5 339,1375C339.8,1365.7 356.2,1352.8 353,1352C340.3,1340.4 331.3,1356.6 329,1366C323.3,1375.6 317.7,1387.2 315,1397ZM669,1393C641.3,1394 672.1,1384.3 675,1375C683,1367.1 693.1,1358.6 699,1350C708,1342 714.7,1330 722,1323C736,1319.9 741.8,1307 748,1298C767.6,1285.9 746.3,1310.8 741,1315C734.1,1324 723.3,1332 717,1341C710.9,1351 702.3,1361.1 695,1369C686.8,1377.1 678.8,1387.8 669,1393ZM600,1383C577.7,1382.2 594.7,1342.4 590,1329C590.4,1307.5 579.1,1291.7 578,1275C591.3,1285.8 594.9,1305.4 599,1324C601.7,1343.6 592.2,1366.4 600,1383ZM1341,1380C1348.6,1371 1348.6,1347.4 1344,1333C1337.5,1335 1342.8,1366.6 1341,1380ZM1271,1374C1254.4,1369.3 1227.2,1346 1227,1343C1236.3,1342.8 1239.5,1347.3 1243,1351C1250.6,1353.7 1251.8,1352.7 1245,1355C1250.5,1357.9 1267.3,1366.3 1271,1374ZM624,1369C619,1360.5 592.1,1328.8 615,1316C651.2,1309 631.9,1360.2 624,1369ZM1307,1355C1300.5,1363 1316.1,1337.4 1317,1333C1329.6,1330.1 1315.1,1356.8 1307,1355ZM856,1347C855.4,1336.4 846.4,1323.3 840,1315C837.8,1301.5 817.1,1295.3 829,1316C833.4,1322 851.5,1348.5 840,1329C839.6,1316.4 852,1343.6 856,1347ZM1229,1339C1207.8,1337.5 1201.9,1323.3 1189,1316C1175.5,1308.6 1162.9,1297.6 1152,1288C1138.3,1280.2 1125.5,1269.3 1113,1261C1110.3,1254.1 1070.1,1236.5 1091,1240C1103.6,1250.4 1119.9,1257.8 1130,1267C1142.8,1278.5 1153.3,1284.7 1166,1294C1180.8,1300.1 1186.4,1314.8 1202,1319C1202.9,1322.5 1214.5,1324.6 1206,1324C1199.5,1326.9 1225.6,1332.7 1229,1339ZM864,1337C864.7,1325.4 854.4,1314.5 848,1307C851.4,1315.7 860.4,1328 864,1337ZM1297,1311C1312,1300.4 1314.6,1301.3 1299,1289C1295.5,1277.7 1283.1,1273.7 1272,1267C1262,1262.3 1256.1,1251.9 1247,1244C1239.8,1235.6 1233.9,1225.2 1229,1213C1230.4,1213 1220.2,1237.8 1217,1208C1214.8,1192.7 1218.6,1179.9 1217,1162C1218.3,1147.9 1220.6,1130.1 1218,1117C1217,1102.9 1218.3,1085.3 1216,1071C1209,1050.4 1212.3,1094.4 1209,1099C1211.2,1116.9 1207.7,1129.7 1208,1146C1205.7,1160.3 1208.6,1179.4 1206,1193C1205,1205.9 1200.5,1224.9 1206,1236C1213,1254.9 1219.5,1208.8 1222,1242C1221.8,1253.8 1234.9,1261.4 1243,1267C1255.8,1271.5 1258.7,1284.9 1278,1281C1290.1,1286.1 1288.6,1303.9 1297,1311ZM340,1302C337.7,1280.1 336.3,1241.7 342,1222C343.8,1247.2 347.6,1281.8 340,1302ZM1053,1302C1042,1294.9 1035.9,1262.9 1055,1261C1058.3,1272.2 1069.7,1271.3 1074,1285C1070.8,1274.2 1054.1,1314.9 1056,1285C1069.2,1249.8 1039.8,1286.6 1053,1302ZM659,1288C637.8,1286.5 613.6,1285.4 597,1279C618.1,1282.6 641.7,1284.2 659,1288ZM678,1281C661.1,1279.9 645.1,1276.2 626,1275C611.3,1270.8 588.7,1271.9 574,1271C563,1263.6 533.3,1273.5 533,1253C536.7,1237.6 539.1,1218.8 545,1207C560.9,1205.9 579.8,1211 596,1212C612.8,1215.4 633.1,1216.3 648,1218C664.4,1222.2 689.1,1217.2 690,1235C687.3,1251.6 683.6,1269.1 678,1281ZM720,1279C738,1279.3 750.8,1274 767,1272C796.5,1270.7 778.9,1262.6 765,1258C754,1252.9 741.7,1244.1 726,1245C724.7,1243.9 721.5,1279.4 720,1279ZM660,1272C680.5,1274.3 675.6,1248.9 681,1238C664.1,1237.5 650,1233.6 632,1233C617.4,1229.9 598.8,1228.1 585,1225C570.8,1225.2 546.2,1215.6 547,1229C540.4,1243 538.1,1266.2 563,1258C598.1,1266.1 565,1254.4 590,1257C609.4,1257.6 608,1268.2 631,1266C654.4,1277.4 646.2,1254.9 660,1272ZM941,1270C935.4,1257.1 930.1,1237.5 928,1225C933.7,1232.2 944.6,1266.5 942,1247C941.2,1228.7 934.6,1215.5 919,1211C905.8,1204.9 892,1199 878,1193C860.2,1191.3 853.6,1178.2 844,1167C836.1,1158.6 806.2,1153.3 808,1175C813.4,1193.2 809.2,1209.1 804,1225C806.9,1248.1 797.2,1259.5 780,1244C766.6,1238.4 751.5,1231.5 739,1225C723.6,1221.7 730,1193.5 730,1177C733.4,1161.2 736.8,1144.8 748,1136C763.4,1135.9 780.7,1142.6 793,1148C807.4,1149.5 778.4,1115.3 806,1117C841.6,1115.4 812.8,1107.4 795,1114C779.9,1118.5 764.8,1123.1 745,1123C725.1,1118.4 723.3,1139.3 714,1149C708.3,1162.9 700.1,1176.7 694,1189C692.5,1192.7 690.9,1196.2 689,1199C669.4,1208.4 704.5,1201.1 704,1212C710,1217.6 681.8,1202.8 664,1208C644.1,1209.5 628.3,1205.5 609,1204C592.6,1201.8 575.6,1199.1 560,1194C544.7,1190.6 531.6,1184 519,1176C505.1,1171 498.7,1157.7 486,1150C476.9,1140.1 464.2,1133.1 460,1117C463.8,1104.1 425.5,1087.2 450,1092C457.9,1104.7 471.6,1110.7 486,1116C509.6,1116.2 498,1138.9 502,1150C519.8,1172.9 513.7,1149.2 531,1143C546.8,1141.5 565.8,1156.8 564,1158C556.8,1167.5 550.8,1142 550,1172C545.9,1177.2 516.1,1172.4 547,1182C561.9,1188.3 578.1,1191.9 596,1193C611.9,1197.8 632.7,1199.1 650,1199C674,1208.8 687,1195.8 662,1188C649.3,1181.1 637.2,1173.5 626,1164C619.9,1160.7 581.8,1145.7 610,1154C623.6,1161.4 638.2,1166.6 650,1173C667,1182.4 685.1,1185.9 660,1171C647.8,1164.6 634.4,1158.4 619,1153C606.8,1146.5 593.2,1140.3 579,1134C567,1126.9 551.4,1120.4 538,1114C524.4,1109.3 511.6,1102.4 497,1096C482.6,1092 466.4,1088.5 452,1082C438.6,1076.9 425.8,1069.9 411,1064C393.5,1062.4 384.2,1047 370,1062C382.3,1058.7 381.8,1035.5 389,1024C395,1010.4 399.9,995.6 406,982C412.5,968.8 420,956.6 426,943C432.4,930.8 448.7,920.9 465,924C472.1,937.5 487.2,942.1 495,954C507.1,961.6 516.7,971.7 529,978C541.1,986.8 551.2,996.3 564,1002C580.9,1006.1 596.9,1009.9 612,1014C625.6,1020.5 639.4,1026.5 653,1032C682.1,1044.6 660.1,1037.4 642,1042C626.4,1049.3 617.2,1031.5 605,1026C601.1,1019.7 563.7,1002.3 582,1019C594.3,1027.4 603.4,1038 615,1045C627.7,1053.1 636.2,1064.4 649,1071C660.6,1079.4 672.2,1087.6 684,1095C693.6,1105.6 707.5,1111.3 718,1119C719.8,1110.9 689.8,1094.4 722,1105C740.8,1103 750.3,1115.2 771,1113C787,1110.5 799.4,1100.2 819,1104C826.5,1111.8 861.5,1116.3 858,1107C841.8,1098.7 859.6,1090 837,1082C825.5,1074.1 804.6,1085.1 795,1069C788.2,1060.4 773.7,1047.9 772,1038C798.3,1020.2 766.6,1040.2 754,1033C742.3,1021.8 765.7,1010.3 768,999C746.9,977.6 778.8,995.4 786,978C800.8,963.8 809.9,1003.6 819,982C832.3,970.8 868.4,990.4 846,969C839.4,960 861.5,954.4 873,947C894.6,947.2 888.1,962.2 870,968C838.4,965.6 873.1,983.7 879,987C892.3,994.3 901.7,1004.6 916,1009C937,1016.6 943.3,1024.8 914,1017C897.4,1009.9 888.7,1001 884,1005C874.9,1022.1 896.3,1028 897,1010C907.3,1010.6 885.2,1033.1 911,1036C925.6,1055.4 936.3,1031.8 950,1033C961.8,1041.7 972.7,1050.6 984,1058C999,1061.3 961.3,1091.2 983,1080C991.5,1064.4 1005.8,1063.7 1015,1078C1028.2,1085.9 1038.4,1095.4 1050,1103C1062.8,1095.8 1067.3,1080.6 1082,1076C1090.5,1064.4 1097.8,1052 1110,1045C1123.5,1029.4 1138.5,1042.4 1152,1044C1187.8,1039.1 1156.6,1036.5 1141,1036C1123.5,1033.3 1105.6,1038.2 1087,1038C1070.5,1040.3 1054.3,1046.7 1045,1053C1027.4,1056.5 1008.5,1051.3 1009,1032C1013.6,1014.2 985.5,1006.7 977,1015C972,1038.5 1004.7,1018.1 1001,1029C1003.6,1051.4 978.7,1045.7 972,1033C950.2,1025 959.3,1018.2 965,1000C975.5,1013.4 981.7,1014.3 970,990C975.2,974.7 983.1,962.9 1001,961C1025.5,957.5 1033.7,969 1036,986C1037.7,997.1 1036.8,1044.7 1042,1010C1046,991.5 1048,977.6 1040,961C1033.5,951.3 1019,938.8 1024,923C1037.5,928.2 1016.9,900.2 1032,892C1042.8,882.6 1057.2,875 1067,866C1080.1,863.6 1089.7,842.6 1105,853C1122,857.2 1142.5,856.3 1150,867C1157.9,880.4 1159.8,898.2 1163,914C1166.9,930.6 1170.3,946.9 1172,964C1172.8,983.8 1178.6,997.7 1181,1014C1182.2,1033.5 1184.1,1051.3 1191,1063C1197.4,1077.5 1194.5,1100.1 1197,1117C1197.9,1138.2 1194.8,1157.2 1194,1175C1192.1,1192.6 1189.4,1209.5 1189,1229C1184,1240.6 1165.9,1218.7 1157,1215C1147.2,1205.2 1134.6,1198.1 1122,1190C1112.2,1183.7 1089.3,1172.5 1085,1191C1082.3,1207.9 1061.2,1214.7 1059,1202C1079.5,1216.3 1071.3,1181.6 1058,1180C1047.2,1171.5 1034.2,1164.8 1022,1157C1000,1149.9 993.7,1169.3 988,1181C995.6,1194.4 1000.5,1209.2 1013,1216C1021,1208.1 1034.1,1189 1049,1203C1056.8,1212.8 1080.2,1216.5 1071,1235C1067.7,1251.5 1046,1255.6 1035,1243C1023.4,1242 1014,1228.8 995,1231C982,1235 952.2,1237.5 946,1229C955.1,1242.2 945.6,1256.4 941,1270ZM1202,1266C1185.5,1255.6 1170.3,1243.4 1153,1233C1138.5,1220.8 1120.9,1209.8 1107,1198C1128.3,1204.4 1138.6,1221.5 1155,1231C1172.4,1242.2 1188.7,1254.5 1202,1266ZM671,1262C668.4,1256.6 671.6,1246.9 676,1244C678.2,1249.8 671.5,1255.9 671,1262ZM995,1252C990.3,1251.7 973.7,1254.1 978,1249C982.8,1247 995.5,1248.5 995,1252ZM378,1251C387.2,1234.5 397.9,1219.4 405,1200C409.7,1183.5 427.5,1165.8 423,1148C415.1,1157.7 408.5,1181.9 399,1197C391.9,1214.2 383.6,1232.9 378,1251ZM1006,1230C1004,1225.1 988.2,1217.3 979,1211C967.9,1195.1 958.4,1210.3 950,1216C924.3,1210.1 950,1230.7 961,1227C975.7,1226.8 997.8,1224.3 1006,1230ZM1033,1224C1038.6,1224.4 1049.1,1224.6 1045,1220C1040.4,1219.8 1029.9,1219.6 1033,1224ZM507,1211C501.6,1199.5 478.4,1189.9 465,1180C472.5,1191.2 495.7,1200.6 507,1211ZM779,1197C786.8,1198.6 804.2,1194.2 789,1191C781.1,1190.1 765.5,1195.6 779,1197ZM951,1197C967.4,1193.9 926.6,1175.8 919,1168C903.6,1157.4 889.6,1142.8 873,1134C851.3,1143.8 905.9,1145.8 905,1162C916.7,1177.7 937.6,1185.4 951,1197ZM619,1191C601.8,1194.7 606.4,1186.1 614,1182C623.2,1179.4 633.7,1192.1 619,1191ZM964,1189C987.7,1187.6 950.5,1180.8 948,1171C936.5,1164.8 926.9,1155.5 914,1149C897.8,1140.3 924.5,1164.1 930,1166C941,1174.9 952.1,1182.6 964,1189ZM1036,1188C1027.1,1187.8 1023.9,1181.5 1022,1173C1026.9,1178.6 1031.6,1183.3 1036,1188ZM581,1181C570.1,1181.8 550.1,1173.1 555,1170C562.2,1166.3 579.3,1178.6 581,1181ZM1139,1177C1139.9,1158.6 1137.1,1132.4 1141,1113C1146.9,1090 1135.7,1074.8 1131,1056C1128.1,1074.9 1143,1088.5 1137,1114C1135,1134.3 1133.7,1159.9 1139,1177ZM965,1175C982.1,1174.2 983.6,1156.2 992,1149C999.7,1143 1015,1127.1 1005,1117C997.7,1107.6 985.2,1100.5 977,1092C965.6,1087.3 960.4,1075.3 948,1069C939.1,1062.1 928.7,1052.9 916,1049C904.2,1044.2 895,1033.9 884,1028C876.1,1019.6 862.7,1013.4 855,1005C859.7,985.9 839.3,981.9 825,988C815.9,996.5 808.3,1008.6 802,1018C797,1025.8 776.4,1037.8 785,1046C792.1,1057.4 804.4,1064.7 813,1071C830.2,1062.9 839.7,1075.4 849,1081C862.1,1086.4 869,1099.1 875,1108C883.5,1117.8 894.8,1126 903,1132C913.6,1140.4 926,1147.6 934,1154C945.3,1161.2 955,1168.6 965,1175ZM1126,1175C1127.6,1154.6 1124,1135 1126,1113C1128.1,1090.4 1121,1072.5 1118,1056C1113.3,1075 1125.9,1091.6 1123,1113C1122.3,1134.2 1121.6,1157 1126,1175ZM1091,1172C1102.5,1172.8 1098,1134.2 1096,1108C1105.6,1054.7 1069.4,1106.9 1083,1100C1092.5,1090.4 1094.8,1175.2 1086,1144C1084.3,1141.5 1084.1,1125.1 1081,1132C1066.9,1138.8 1060.4,1120.4 1077,1109C1068.9,1091.6 1039,1122.8 1026,1094C1016,1074.3 981.3,1067 997,1091C1015.9,1102.5 1031.4,1116.1 1049,1127C1068.3,1137.5 1080.5,1154.5 1091,1172ZM897,1170C899.4,1161.4 874.8,1155.4 864,1149C843.6,1148.2 858.3,1113.7 837,1128C811.9,1135.5 848.5,1146.1 856,1150C870,1157 886,1163 897,1170ZM1225,1168C1230.5,1158.8 1232.2,1139.6 1227,1127C1220.7,1134.5 1226.4,1154.1 1225,1168ZM1058,1153C1057.6,1146.8 1043.5,1138 1035,1132C1034.7,1140 1052.3,1145.4 1058,1153ZM399,1131C411.4,1128.1 399,1110.7 399,1104C392.4,1108 399.1,1123.9 399,1131ZM882,1130C884.6,1129 874.2,1117 867,1121C856.8,1127.1 883.6,1122.4 882,1130ZM712,1128C713,1124 701.2,1122.1 696,1118C695.5,1124.1 708.8,1124.4 712,1128ZM366,1127C364.4,1115.6 364.3,1097.8 366,1090C372.6,1098.5 371,1120.9 366,1127ZM920,1127C913.6,1127.3 906,1117.5 914,1113C920.7,1115.5 928.2,1121.7 920,1127ZM1104,1121C1106.9,1105.8 1105.5,1084.5 1103,1072C1101.2,1086.3 1103.5,1107.7 1104,1121ZM644,1114C683.5,1113.8 623.4,1107.3 622,1098C607.5,1089.3 591.2,1080.3 577,1072C563.4,1062.7 547.1,1053.7 533,1045C517.6,1037.8 503.8,1026.3 487,1020C457.1,1012.6 505.9,1030.4 510,1036C525.1,1045.1 541.3,1054.2 555,1062C568.7,1072.2 585.2,1081.1 597,1090C615.1,1096.5 626.3,1110.6 644,1114ZM663,1104C667.4,1100.5 640.9,1085.1 626,1082C609.4,1075.3 591.4,1069.3 577,1059C563.8,1048.9 547.1,1041.6 532,1032C517,1023.7 502.5,1014.2 483,1009C480.8,1011.9 513,1021.5 522,1029C536.8,1039.1 552.9,1046.9 567,1056C581,1066.8 596.1,1075.7 613,1082C631.1,1088.8 648.2,1095.7 663,1104ZM770,1101C752.3,1096.2 730.9,1094.8 744,1074C719.9,1046.1 744.5,1091.9 723,1090C719.4,1093.3 704.4,1070.4 690,1078C681,1068.5 669.3,1054 648,1051C659.2,1041 694.2,1049.3 704,1055C725.6,1058.5 739.4,1068.8 759,1072C765.8,1072.4 775.7,1071.6 777,1073C814.9,1076.7 772.4,1077.6 790,1089C757.7,1086.3 807.6,1095 770,1101ZM712,1098C700.5,1093.6 679.8,1091.6 677,1082C684.4,1091.5 716,1083.9 712,1098ZM676,1077C665.4,1067.5 645.3,1064.7 635,1055C651.8,1059.8 673.1,1061.4 676,1077ZM1059,1077C1047.6,1075.4 1043.7,1062.9 1033,1060C1050.9,1057.4 1053.1,1071.6 1059,1077ZM970,1072C991.7,1065 956.3,1046.6 945,1040C913.7,1058 965.8,1059.3 970,1072ZM411,1053C429,1055.9 424.1,1047.2 414,1045C402.6,1041.1 399.9,1051.1 411,1053ZM927,1040C918.7,1043.5 932.1,1024.1 939,1024C950.7,1024.5 929.7,1035.1 927,1040ZM1049,1038C1062.4,1030.9 1050.4,1007.4 1050,993C1046.9,999.2 1045.9,1026.6 1049,1038ZM1074,1022C1083.5,1022.3 1125.4,1013.7 1100,1014C1092.7,1017.5 1046.7,1016.8 1074,1022ZM714,1017C708.7,1015.5 696.6,1019.8 694,1014C700.5,1016 712.5,1011.6 714,1017ZM876,1011C887.7,1000.7 877.6,992.6 864,988C854.9,988.8 866.1,1013.2 876,1011ZM315,990C318.4,985.7 325.3,978.3 315,961C313,946.7 307.5,930.6 317,920C326.4,912.3 329.5,898.2 334,885C339.8,874.9 346,862.3 349,851C355.7,840 360.3,827.4 366,816C370.8,803.7 377.5,793.2 381,780C388.9,770.3 393.1,757.4 397,744C403.7,734.3 411.4,723.3 414,711C423.8,702.7 423.5,683.7 415,673C409.8,660 415.4,643.3 420,632C428.5,623.5 436.4,614.3 446,606C453.2,597.4 465.1,590.5 471,582C479.2,572.6 491.3,567.6 498,558C508.2,550.2 518.3,543.2 528,536C538.4,529 552,525.4 564,520C576.8,516.6 594.1,515.1 609,515C627,515.2 638.9,520.4 653,523C667.5,520.5 679.4,515.2 694,513C708,509.5 723.2,507.6 739,506C760.2,495.9 762.4,513.4 763,527C767.8,540.2 776.1,549 781,560C789.7,569.7 794.7,581.8 803,590C810.5,600.4 817.7,610.3 826,618C835.5,626.2 841.4,639 851,644C857,655.4 867.8,661.8 875,671C881.5,682.3 893.1,687.9 898,699C907.6,707.7 914.8,717.6 925,723C930.8,729.6 954.4,740.8 954,735C942,730.3 934.4,720.8 925,712C916.6,704.8 908.7,694 901,686C895.7,675 883.6,670 878,658C870.2,649.7 859.6,641.5 853,632C844.5,624.7 839.2,612.8 829,605C822.1,595.6 813.9,586.6 806,577C799.6,566.7 791.6,557.6 785,546C778.7,536.8 771.2,525.5 768,513C763.8,498.9 767.6,481.5 776,474C783.1,463.8 791.7,455.3 798,444C808.2,437.5 813.2,425.3 820,415C825.6,404 832.6,392.3 834,379C837.5,365.2 853.6,364.2 857,351C862.3,338.6 872.4,331.6 880,322C890.2,315.1 899.6,307.4 910,300C921.2,295.3 934.7,290 946,286C960.7,284 975.6,281.7 993,282C1010.4,282.8 1026.4,285.6 1040,286C1055.7,288.3 1067.1,294.1 1080,298C1091.6,303.2 1106.8,306.8 1114,313C1123.1,322.5 1134.3,328.4 1141,338C1153.7,343.3 1158,356.2 1166,365C1171.7,384.4 1176.6,384.3 1182,376C1187.1,384.6 1185.8,401.9 1199,405C1205.8,424.9 1187.2,396.8 1184,392C1186.4,400.8 1192.3,423.9 1182,429C1196.2,412.3 1196.3,440.8 1195,452C1196.2,469.5 1196.8,489 1189,496C1174.3,505.7 1187.6,519.2 1175,525C1163.9,531.8 1147,532 1130,532C1115.1,530.1 1099.9,528.3 1086,524C1072.1,522.3 1058.7,517 1046,514C1033.1,510.6 1020.2,506.3 1008,501C995.7,497.2 982.4,491.7 972,487C960.4,481.7 944.8,480.2 938,469C937,454.3 937,435.6 927,430C916.4,425.7 906.4,414.2 891,417C879.5,423.5 873.1,434.2 866,444C854.3,459.7 874.6,466.9 883,471C895.8,475.9 907.2,483.2 918,487C929.3,493.1 941.6,497.9 951,505C955.9,513.9 965.6,534.8 954,541C941.6,546 916.4,538 907,546C897.3,554.6 905.3,577.8 907,586C912.6,598.6 923,605.2 929,615C938.3,624.3 944.3,635.5 954,642C960.3,653.7 970.2,660.9 978,669C987.1,677.7 994.3,689.3 1009,689C1026.7,689.4 1037.8,683.4 1053,681C1065.7,677 1080.5,674.6 1094,671C1107.7,667.6 1126,668.7 1128,654C1133,642 1154.6,644.8 1161,636C1164.6,622.9 1164.3,605.4 1164,588C1169,575.8 1160.9,550.6 1173,546C1178.9,534.4 1183.5,521.8 1190,511C1200.6,505.2 1207.5,493.4 1204,475C1204.1,457.5 1199.7,445.9 1207,432C1202.3,416.3 1212,403.3 1202,390C1194.5,381.4 1192.8,365.9 1182,358C1177.1,348 1166.7,339.6 1157,334C1150.3,323.9 1133.8,323.3 1127,312C1118.3,304.6 1107.8,298 1094,294C1084,287.4 1069.9,284.4 1054,282C1038.4,279.2 1047.2,269.9 1020,273C1002.8,274.8 987.4,273 970,272C948.8,269.8 949.6,282.8 934,284C918.6,285.2 911.6,295.4 898,299C890.3,307.7 877.2,313.4 871,322C863.2,331.3 853.3,338.6 848,351C842.8,362.3 830.4,367.2 825,379C821,392 812.9,401.1 808,414C800.8,422.6 792.5,433 786,442C783,455.6 772.3,462 766,473C757.4,481.4 754.4,495.6 735,493L684,493C668.3,494.5 647.3,492.3 635,495C602.6,497.7 628.8,499.7 645,500C662,500.8 680.7,499.1 695,501C712.7,505.1 672.4,505.4 666,507C652.2,505 633.4,504.2 619,506C603.2,507.2 584.4,505.6 569,507C551.2,506.1 547.9,521.4 534,523C522.6,528.2 514.1,536.8 502,542C492.7,546.2 473.4,553.4 473,558C482.2,559 457.1,570.3 457,581C446,586.6 441.3,599 432,606C424.1,616.1 413,622.1 408,635C398.6,641.4 398.5,660.1 394,671C384.7,673.6 382.7,691.5 381,707C382,739.5 372.9,711.5 375,695C369.6,706.9 371.6,726 369,740C362.4,750.5 358.1,765 352,774C341.7,780.6 347.3,803.3 335,808C332.8,825.7 321.3,824.8 318,840L318,892C320.5,916.1 309.3,921.2 312,894C312.1,886.3 312.3,844.2 307,866C305,880.8 306.6,901.2 306,915C302,936.7 302.3,940 306,951C303,965.6 310.7,981 315,990ZM757,978C744.1,978.1 757.8,972.2 761,974C776.8,974.5 760.6,975.9 757,978ZM460,972C466.2,963.7 448.9,958.8 446,954C439.3,962.8 456,968.7 460,972ZM297,963C296.9,957.5 303.5,943 297,942C292.5,947.2 292.5,958.3 297,963ZM840,954C835.8,955.7 829.3,943.4 837,947C844.3,948.6 848.4,951.1 840,954ZM747,937C764.2,938.6 771.5,925.5 776,918C763.8,921.1 758.5,936.2 747,937ZM736,933C757.1,935.4 760.9,912.9 772,912C753.2,911.2 748.9,934.7 736,933ZM722,928C747.7,933.4 745.6,909.2 763,909C738.1,903.4 741.6,928.9 722,928ZM712,924C734.2,927.2 733.9,905.7 749,903C727.4,900.9 727.4,922 712,924ZM700,918C723.8,921.9 721.3,898.2 739,898C714.8,893.4 716.6,916.3 700,918ZM698,910C711.6,909.2 711.5,894.5 725,893C707.5,890.5 702.2,899.8 698,910ZM483,905C515.1,883.8 461.7,909.6 483,892C481.7,896.8 475.3,896.9 470,894C442.9,889.1 490.5,884.7 471,878C478.6,846 457,884.2 448,888C437.3,896.1 477.3,890.5 483,905ZM669,897C678.5,898.4 684.8,896.9 689,893C700.4,868.5 645.8,879.7 664,883C667.4,888.9 679.7,884.9 682,883C707.7,898.1 629.8,887.5 669,897ZM884,894C887.9,888.6 897,885.4 901,882C889.5,879.8 884.9,887.5 884,894ZM900,878C919.8,880.8 926.5,870.3 933,860C948.3,838.8 928.4,853.1 923,861C917.5,874.3 898.3,869 883,867C856.7,867.6 891.9,880.8 900,878ZM678,867C683.1,866.4 671.8,858.5 667,860C662.4,862.3 678,865.8 678,867ZM648,856C673.4,853.8 696.8,847.8 714,839C733.6,830.9 748.2,818.1 761,803C774.2,788.8 786.9,772 794,753C799.4,734.2 817.1,715.3 810,694C805.2,717.4 794.5,736.1 786,754C776.3,771.6 765.9,788.6 752,802C738.5,816.5 718.9,826.3 700,834C686.6,844 650.1,844.9 648,856ZM1017,856C1022.8,856.1 1023.9,851.2 1026,847C1037,814.4 1016.2,852.7 1020,834C1013.7,797.4 1018.1,840.6 1017,856ZM894,855C913.3,854.9 933.5,835.8 947,846C946.7,825.4 916.4,844.8 902,847C882.4,848.6 863.8,839.1 844,835C822.9,807.1 859.3,832.3 870,834C882.8,841.3 922.4,841.3 923,833C901,831.3 883.4,824.9 862,821C843.2,806.5 815.3,822.1 839,839C857.4,845.3 877.5,850.4 894,855ZM380,853C385.6,844.3 392.2,839.1 396,821C389.2,818.8 383.8,844.2 380,853ZM379,838C381.9,830.1 392.3,818.7 387,810C385.3,819.2 374.1,829.6 379,838ZM657,829C682,828.1 698.4,816.8 716,810C731.4,799.5 747.7,790.1 757,774C768.9,759.5 779.9,742.7 788,726C795.1,709.1 804.6,689 803,667C792.6,678.3 792.4,708.4 781,721C774.4,739.7 763.6,754.6 753,770C740.9,783.7 726.9,797.5 709,804C695.5,816.3 671.8,818.4 657,829ZM406,806C411.9,798 413.4,785.8 416,775C410.8,783.2 407.4,793.5 406,806ZM394,802C399.7,789.3 403.6,775.2 408,762C399.9,771.5 394.5,784 394,802ZM1094,784C1098.7,785.1 1098.6,772.4 1098,774C1094.6,770.5 1093.7,782.1 1094,784ZM370,762C369.9,760 378.8,749.2 384,745C394.2,757.1 375.3,758.2 370,762ZM399,709C392.4,708.8 385.2,694.3 397,700C414,701.4 405.4,704.2 399,709ZM477,673C483.9,668.4 493.7,663.5 498,658C491,662.6 480.9,667.2 477,673ZM1020,672C1001,674.3 997.4,659.9 990,649C982.5,638.8 975.3,628 968,617C957.5,605.9 963.4,588.9 972,579C979.5,568.1 1001,574 1014,574C1030.3,577.9 1048.7,574.1 1063,572C1077.5,569 1094.4,566.3 1107,563C1120.7,558.9 1140.7,560.9 1154,556C1170.4,534.4 1154.9,563.3 1148,567C1148,584.8 1145.7,600.5 1144,617C1128.5,639.5 1146.9,577.4 1135,610C1119.4,632.5 1156.2,631.2 1152,612C1151,592.4 1157.6,570.2 1157,603C1160.5,624.3 1155.1,638.2 1135,632C1140.4,644.9 1120.2,651.5 1108,653C1092.7,655.6 1077.9,658.7 1063,662C1048.6,664.8 1033.5,669.3 1020,672ZM932,662C947.7,663.8 954.8,648.4 936,654C919.9,656.9 912.7,659.1 932,662ZM919,650C931.1,650.1 955.7,643.8 932,642C921.2,646.4 893.9,643.4 919,650ZM906,639C918.5,638.2 947,636.2 928,631C920,636.1 886.4,632.4 906,639ZM528,636C544,626.8 563.8,619.6 579,612C559.2,616.6 540.7,625 528,636ZM897,628C906.9,629.6 938.7,623.1 915,621C908.6,626.6 875.1,621.7 897,628ZM889,618C900.7,619.1 932.1,611.7 906,610C896.9,616.3 865.9,611.6 889,618ZM882,608C892.9,605.5 921,604.7 900,599C891.8,604.6 858.2,600.4 882,608ZM844,603C846,583.7 837.8,566.9 826,556C814.9,546.3 814.1,524.7 790,525C798.1,536.5 807,552.6 816,564C827,576.2 837,588.5 844,603ZM876,597C883.7,597.5 906.2,593.7 893,588C886.7,589.3 864.1,593.2 876,597ZM729,578C748.5,578.8 788.7,551.6 747,546C739.2,546.3 732.9,547.8 727,550C690.1,541.7 730.3,563.7 744,552C783.6,547 720.6,584.2 720,563C684.9,533.8 712,573.5 729,578ZM1172,570C1177.7,567.9 1177.7,551.5 1176,547C1170.5,553.6 1172.5,562.8 1172,570ZM669,567C704.7,568.2 658,561.6 659,552C651.9,542.3 635.3,538.5 623,533C610.7,529.6 585.2,530.5 572,532C556.6,535 543.2,542 532,547C506.7,562.5 539,554.2 545,546C559.3,542.3 573.2,535.8 590,536C610.2,534.4 627,538 637,543C650.8,549.1 657.8,562.4 669,567ZM840,549C845.4,544.9 849.6,540.6 851,533C846.4,537.4 843.3,542.9 840,549ZM855,501C859.4,501.3 873.7,502.1 870,500C867,497.4 855.1,499 855,501ZM1116,446C1133.9,447.9 1161.3,439.8 1157,433C1149.8,441.6 1112.2,441.1 1116,446ZM1015,439C1020.4,440.9 1039.8,439.1 1026,437C1020,437.3 1003.6,436.1 1015,439ZM1215,439C1220.6,436.1 1216.1,423.6 1216,417C1210,422.1 1216.4,432.8 1215,439ZM1112,437C1129.3,436 1146.2,432.6 1157,426C1139.8,427.7 1122.8,431.1 1112,437ZM1024,430C1036.3,432.3 1038.4,428.1 1028,428C1015.6,427.9 1016.6,429.1 1024,430ZM1059,428C1059.4,421.2 1026.3,414.5 1013,408C993.2,404 966.7,405.6 948,398C947.1,407.3 982.9,411.3 1001,411C1023.3,414.5 1039.4,423.4 1059,428ZM1062,419C1062.4,411.3 1031.4,403.7 1015,398C994.3,394.8 968.9,393.2 948,389C948.9,397 984.8,399.6 1004,401C1025.8,404.7 1044.6,412.8 1062,419ZM1144,389C1165.6,385.4 1141.3,352.2 1161,379C1157.8,367.8 1146.6,354.7 1139,345C1131.3,340.3 1111.5,323 1109,327C1121.4,334.9 1131.5,343.6 1140,353C1133,350.7 1118.4,338.1 1108,333C1098.2,324 1086.2,314.7 1073,309C1060.4,303.9 1045.9,297.2 1031,294C1017.1,289.6 994.2,293.6 978,290C957.7,289 941.4,293.9 929,299C915.4,304.5 901.3,311.7 892,320C883.1,320 870.1,359.7 880,343C886.8,330.5 896,320.9 907,313C918.9,305.7 934.5,300.1 948,297C964.8,295.1 984.7,292.7 1001,295C1018.7,297.7 1036.8,300.8 1049,306C1063.1,310.9 1075.1,317.8 1087,324C1097.4,333.4 1111.6,340.4 1121,348C1132.6,356.1 1143.9,366.1 1148,379C1142.4,390.8 1133.1,359.9 1123,358C1113,350.6 1102,342.7 1090,335C1080.1,326.6 1066,319.5 1053,315C1040.7,308.2 1023.1,304.5 1006,303C990.5,300.2 968.5,300.1 954,303C937.1,305.4 924,311.1 911,317C898.9,324.1 890.5,336.9 884,348C890,354.1 900.7,329.1 910,326C920.2,317.4 936.3,312.3 951,309C968.8,310.5 983.1,299.6 999,306C1016,308.1 1032.5,312.8 1045,317C1058.8,322.9 1072,328.6 1082,336C1093.9,344.7 1106.7,353.1 1116,361C1127.4,368.7 1131.9,383.1 1144,389Z" fill="#fff"/>
</g>
</svg>
